<svg width="56" height="56" viewBox="0 0 56 56" fill="none" xmlns="http://www.w3.org/2000/svg">
<rect x="0.5" width="55" height="56" rx="8" fill="white"/>
<path d="M37.2806 34.424C36.9327 35.2275 36.521 35.9672 36.044 36.6472C35.3938 37.5743 34.8614 38.216 34.4511 38.5724C33.815 39.1573 33.1336 39.4568 32.4039 39.4739C31.88 39.4739 31.2482 39.3248 30.5128 39.0224C29.775 38.7214 29.0969 38.5724 28.4769 38.5724C27.8267 38.5724 27.1293 38.7214 26.3834 39.0224C25.6364 39.3248 25.0346 39.4824 24.5744 39.498C23.8747 39.5278 23.1772 39.2197 22.4809 38.5724C22.0366 38.1848 21.4807 37.5204 20.8149 36.5791C20.1005 35.5739 19.5132 34.4084 19.053 33.0795C18.5603 31.6442 18.3132 30.2543 18.3132 28.9087C18.3132 27.3673 18.6463 26.0379 19.3134 24.9238C19.8377 24.029 20.5352 23.3231 21.4082 22.8049C22.2812 22.2867 23.2244 22.0227 24.2402 22.0058C24.7961 22.0058 25.5249 22.1777 26.4307 22.5156C27.3339 22.8546 27.9139 23.0265 28.1681 23.0265C28.3582 23.0265 29.0025 22.8255 30.0947 22.4247C31.1275 22.0531 31.9992 21.8992 32.7133 21.9598C34.6484 22.1159 36.1022 22.8788 37.069 24.253C35.3384 25.3016 34.4823 26.7703 34.4993 28.6544C34.515 30.122 35.0474 31.3432 36.0937 32.3129C36.5679 32.7629 37.0974 33.1107 37.6866 33.3578C37.5588 33.7283 37.4239 34.0832 37.2806 34.424V34.424ZM32.8425 16.9601C32.8425 18.1104 32.4223 19.1844 31.5847 20.1785C30.5738 21.3602 29.3512 22.0431 28.0253 21.9354C28.0084 21.7974 27.9986 21.6521 27.9986 21.4995C27.9986 20.3953 28.4793 19.2135 29.333 18.2472C29.7592 17.758 30.3013 17.3512 30.9586 17.0267C31.6145 16.7071 32.2349 16.5303 32.8184 16.5C32.8354 16.6538 32.8425 16.8076 32.8425 16.9601V16.9601Z" fill="black"/>
<rect x="1" y="0.5" width="54" height="55" rx="7.5" stroke="#252525" stroke-opacity="0.14"/>
</svg>
