<svg width="56" height="56" viewBox="0 0 56 56" fill="none" xmlns="http://www.w3.org/2000/svg">
<rect x="0.5" width="55" height="56" rx="8" fill="white"/>
<g clip-path="url(#clip0_7_1067)">
<path d="M40.5 28C40.5 21.3726 35.1274 16 28.5 16C21.8726 16 16.5 21.3725 16.5 28C16.5 33.9895 20.8882 38.954 26.625 39.8542V31.4688H23.5781V28H26.625V25.3563C26.625 22.3488 28.4166 20.6875 31.1575 20.6875C32.4705 20.6875 33.8438 20.9219 33.8438 20.9219V23.875H32.3306C30.8398 23.875 30.375 24.8 30.375 25.7491V28H33.7031L33.1711 31.4688H30.375V39.8542C36.1118 38.954 40.5 33.9896 40.5 28Z" fill="#1877F2"/>
<path d="M33.1711 31.4688L33.7031 28H30.375V25.7491C30.375 24.7999 30.8399 23.875 32.3306 23.875H33.8438V20.9219C33.8438 20.9219 32.4705 20.6875 31.1575 20.6875C28.4166 20.6875 26.625 22.3488 26.625 25.3563V28H23.5781V31.4688H26.625V39.8542C27.2453 39.9514 27.8722 40.0002 28.5 40C29.1278 40.0002 29.7547 39.9514 30.375 39.8542V31.4688H33.1711Z" fill="white"/>
</g>
<rect x="1" y="0.5" width="54" height="55" rx="7.5" stroke="#252525" stroke-opacity="0.14"/>
<defs>
<clipPath id="clip0_7_1067">
<rect width="24" height="24" fill="white" transform="translate(16.5 16)"/>
</clipPath>
</defs>
</svg>
