<svg width="56" height="56" viewBox="0 0 56 56" fill="none" xmlns="http://www.w3.org/2000/svg">
<rect x="0.5" width="55" height="56" rx="8" fill="white"/>
<g clip-path="url(#clip0_7_1061)">
<path d="M39.9441 28.2245C39.9441 27.2413 39.8643 26.5237 39.6916 25.7796H28.4636V30.2176H35.0542C34.9214 31.3205 34.2038 32.9815 32.6093 34.0976L32.587 34.2461L36.137 36.9963L36.383 37.0209C38.6418 34.9347 39.9441 31.8653 39.9441 28.2245" fill="#4285F4"/>
<path d="M28.4635 39.9176C31.6923 39.9176 34.4029 38.8545 36.3828 37.0209L32.6092 34.0976C31.5993 34.8018 30.244 35.2934 28.4635 35.2934C25.3011 35.2934 22.617 33.2074 21.6602 30.324L21.52 30.3359L17.8285 33.1927L17.7803 33.3269C19.7468 37.2334 23.7862 39.9176 28.4635 39.9176Z" fill="#34A853"/>
<path d="M21.6604 30.324C21.4079 29.5799 21.2618 28.7826 21.2618 27.9588C21.2618 27.1349 21.4079 26.3377 21.6471 25.5936L21.6404 25.4351L17.9027 22.5324L17.7805 22.5906C16.97 24.2117 16.5049 26.0321 16.5049 27.9588C16.5049 29.8855 16.97 31.7058 17.7805 33.3269L21.6604 30.324" fill="#FBBC05"/>
<path d="M28.4635 20.624C30.709 20.624 32.2238 21.594 33.0875 22.4046L36.4625 19.1093C34.3897 17.1826 31.6923 16 28.4635 16C23.7862 16 19.7468 18.6841 17.7803 22.5906L21.6469 25.5936C22.617 22.7102 25.3011 20.624 28.4635 20.624" fill="#EB4335"/>
</g>
<rect x="1" y="0.5" width="54" height="55" rx="7.5" stroke="#252525" stroke-opacity="0.14"/>
<defs>
<clipPath id="clip0_7_1061">
<rect width="23.46" height="24" fill="white" transform="translate(16.5 16)"/>
</clipPath>
</defs>
</svg>
